<?xml version="1.0" encoding="UTF-8"?>
<svg version="1.1" xmlns="http://www.w3.org/2000/svg" width="512" height="512">
<path d="M0 0 C0.77601563 0.65097656 1.55203125 1.30195312 2.3515625 1.97265625 C6.32858259 5.34314239 9.81588282 8.89273795 13.1796875 12.875 C14.40092463 14.30065021 15.657291 15.69688685 16.9453125 17.0625 C30.38312796 31.34327805 40.8470312 47.73227851 50 65 C50.37318359 65.69174316 50.74636719 66.38348633 51.13085938 67.09619141 C68.94369252 100.54120599 75.48969988 139.11016654 75.25 176.625 C75.24534729 177.94343903 75.24534729 177.94343903 75.24060059 179.28851318 C75.08609807 217.10342877 71.28869893 254.59131957 66.32775879 292.05230713 C66.06981183 294.00062563 65.81463525 295.94931314 65.56237793 297.89837646 C65.20747555 300.62135467 64.83843904 303.34203095 64.46484375 306.0625 C64.36177414 306.86495148 64.25870453 307.66740295 64.1525116 308.49417114 C63.34051154 314.22462062 62.22796224 319.77203776 58 324 C56.01178687 324.39764263 54.01055661 324.73775349 52 325 C51.93941406 325.89460938 51.87882812 326.78921875 51.81640625 327.7109375 C51.69072266 329.52464844 51.69072266 329.52464844 51.5625 331.375 C51.44648437 333.293125 51.44648437 333.293125 51.328125 335.25 C51 339 51 339 50.359375 341.875 C49.78237547 344.51271214 49.46904644 346.34523218 50 349 C52.20153873 351.38423904 54.577835 353.09872518 57.23046875 354.96484375 C67.09762122 362.21560036 72.46475786 374.24141111 75 386 C76.49538042 402.62143727 74.65132969 417.58315798 64 431 C63.55011719 431.61101562 63.10023438 432.22203125 62.63671875 432.8515625 C54.68318341 443.02312601 41.65117726 449.96703626 29 452 C17.8197556 452.98671712 7.43473956 452.46204011 -3 448 C-3.94101562 447.59910156 -4.88203125 447.19820313 -5.8515625 446.78515625 C-20.20160577 439.8122479 -29.07790542 427.28378915 -34.23828125 412.54296875 C-37.68334286 401.04176308 -37.20325203 387.23593054 -33 376 C-32.10496161 374.36298776 -31.18829299 372.73760939 -30.25 371.125 C-26.92372254 364.70357614 -27.97664061 358.92599862 -29 352 C-29.15243164 350.92121582 -29.30486328 349.84243164 -29.46191406 348.73095703 C-30.58383612 340.81044277 -31.7863783 332.90811559 -33 325 C-43.23 325 -53.46 325 -64 325 C-64.66 326.98 -65.32 328.96 -66 331 C-69.39137546 333.26091698 -70.5427963 333.25167069 -74.51779747 333.25726891 C-76.24946256 333.26694224 -76.24946256 333.26694224 -78.01611078 333.276811 C-79.29029953 333.2737138 -80.56448828 333.2706166 -81.87728882 333.26742554 C-83.24004927 333.27116027 -84.60280757 333.27576108 -85.96556246 333.28115618 C-89.71903338 333.29342475 -93.47241543 333.29312117 -97.22590184 333.29076743 C-101.27113939 333.2903602 -105.31634808 333.30138979 -109.36157227 333.31088257 C-117.29243547 333.3275175 -125.22326896 333.33299335 -133.15414815 333.33410732 C-139.60372214 333.33505715 -146.05328632 333.33916422 -152.50285721 333.34550858 C-170.79134356 333.36313216 -189.07980641 333.37234636 -207.36830132 333.37084763 C-208.35487223 333.37076772 -209.34144315 333.3706878 -210.35791016 333.37060547 C-211.34568772 333.37052371 -212.33346528 333.37044195 -213.3511755 333.37035771 C-229.34042945 333.36954575 -245.32958898 333.3886578 -261.31881563 333.4168822 C-277.7391903 333.44563849 -294.15951898 333.45942081 -310.57991946 333.45769465 C-319.79737303 333.45703142 -329.01472779 333.46249343 -338.23215866 333.48405075 C-346.08528039 333.50229925 -353.93825858 333.50658028 -361.79139237 333.4930319 C-365.79505103 333.4865191 -369.79843462 333.48632323 -373.8020668 333.5037384 C-377.47526761 333.51955097 -381.14797717 333.51652311 -384.82116659 333.49917014 C-386.76294433 333.49468408 -388.7047378 333.50969369 -390.64645517 333.52564943 C-403.98352301 333.4217386 -415.02800325 329.99872987 -425 321 C-432.14843743 313.49214393 -437.05989656 304.43577092 -437.17700195 293.94702148 C-437.18983719 292.94174911 -437.20267242 291.93647675 -437.21589661 290.90074158 C-437.22328354 289.81845779 -437.23067047 288.73617401 -437.23828125 287.62109375 C-437.246353 286.49864761 -437.25442474 285.37620148 -437.26274109 284.21974182 C-437.27657021 281.84174132 -437.2872976 279.46372106 -437.29516602 277.08569336 C-437.30666274 274.66603741 -437.32707759 272.24640636 -437.35668945 269.8269043 C-437.39959803 266.32062637 -437.41557014 262.81510247 -437.42578125 259.30859375 C-437.44328934 258.24047958 -437.46079742 257.17236542 -437.47883606 256.07188416 C-437.44425718 243.92922137 -433.1853179 233.80016063 -425.03515625 224.83984375 C-416.9548263 217.02252635 -406.71600885 212.83957537 -395.48046875 212.90234375 C-394.45888672 212.90556641 -393.43730469 212.90878906 -392.38476562 212.91210938 C-391.32966797 212.92048828 -390.27457031 212.92886719 -389.1875 212.9375 C-388.11306641 212.94201172 -387.03863281 212.94652344 -385.93164062 212.95117188 C-383.28770317 212.96292271 -380.64388048 212.97935213 -378 213 C-378.0330077 210.39239154 -378.1001148 207.79337154 -378.1875 205.1875 C-378.19330078 204.44951172 -378.19910156 203.71152344 -378.20507812 202.95117188 C-378.25316515 200.50435338 -378.25316515 200.50435338 -379 197 C-381.32464736 195.02961044 -381.32464736 195.02961044 -384 194 C-386.58987419 191.41012581 -386.25894532 189.6147635 -386.30310059 186.08421326 C-386.30233521 185.26751663 -386.30156982 184.45082001 -386.30078125 183.609375 C-386.30638062 182.76145889 -386.31197998 181.91354279 -386.31774902 181.03993225 C-386.32971865 178.27644379 -386.32336312 175.51348847 -386.3125 172.75 C-386.31067719 171.81239838 -386.30885437 170.87479675 -386.30697632 169.90878296 C-386.2613453 156.0590992 -385.78157356 142.60664373 -383 129 C-382.82839355 128.11473633 -382.65678711 127.22947266 -382.47998047 126.31738281 C-375.61758173 91.4227905 -361.40446763 57.81103021 -339 30 C-337.92685547 28.64068359 -337.92685547 28.64068359 -336.83203125 27.25390625 C-331.19142798 20.21563138 -325.17762174 13.56490383 -319 7 C-318.38382812 6.34128906 -317.76765625 5.68257813 -317.1328125 5.00390625 C-312.16172029 -0.14557444 -306.60003985 -4.55783575 -301 -9 C-299.99839844 -9.80695312 -298.99679687 -10.61390625 -297.96484375 -11.4453125 C-219.35206065 -74.05213866 -105.22005203 -75.65972662 0 0 Z " fill="#FE3214" transform="translate(437,60)"/>
<path d="M0 0 C10.56 0 21.12 0 32 0 C42.23628732 24.25859872 51.29275582 48.12358596 57.45117188 73.73535156 C58.07595441 76.3134133 58.71789612 78.88698118 59.359375 81.4609375 C59.82341071 83.34883697 60.28695692 85.23685682 60.75 87.125 C61.08451172 88.45869629 61.08451172 88.45869629 61.42578125 89.81933594 C61.63074219 90.6652832 61.83570313 91.51123047 62.046875 92.3828125 C62.23088867 93.12934082 62.41490234 93.87586914 62.60449219 94.64501953 C63 97 63 97 63 103 C52.77 103 42.54 103 32 103 C30.515 100.03 30.515 100.03 29 97 C27.19025206 94.77089075 27.19025206 94.77089075 24.64944136 94.75209498 C23.15664532 94.75355615 23.15664532 94.75355615 21.63369179 94.75504684 C19.91453841 94.7493989 19.91453841 94.7493989 18.16065466 94.74363685 C16.89065285 94.7496643 15.62065103 94.75569175 14.31216431 94.76190186 C12.95780566 94.76119606 11.60344722 94.75959713 10.24909055 94.75717759 C6.51421503 94.75300238 2.77945125 94.76121751 -0.95540929 94.77128005 C-4.97881837 94.77990098 -9.00221924 94.77694832 -13.02563477 94.77513123 C-20.00354554 94.77331706 -26.98142629 94.77812735 -33.95933151 94.78673553 C-44.99362921 94.79976523 -56.02786803 94.79222181 -67.06216431 94.78131104 C-70.83657637 94.77783251 -74.61098855 94.7744875 -78.38540077 94.77118301 C-79.80049021 94.76993601 -79.80049021 94.76993601 -81.24416732 94.76866381 C-91.99041364 94.75947426 -102.73666047 94.75452908 -113.48291016 94.75146484 C-114.4655343 94.75117909 -115.44815845 94.75089335 -116.46055909 94.75059894 C-132.36646209 94.74649898 -148.2723275 94.75770712 -164.1782221 94.77284035 C-180.50932589 94.78782107 -196.84031624 94.77980567 -213.17140353 94.75222325 C-223.242797 94.73606838 -233.31383293 94.73872532 -243.38520487 94.76569638 C-250.29456545 94.78261799 -257.20369521 94.77770169 -264.11304097 94.75581208 C-268.09643619 94.74387816 -272.07921097 94.74158296 -276.06256485 94.76569176 C-279.71623565 94.78760915 -283.36879129 94.78146549 -287.02241381 94.75388661 C-288.95604175 94.74636822 -290.88971684 94.76816882 -292.82322061 94.79133677 C-302.06196583 94.67944617 -310.11720527 92.44334729 -317.09586847 86.09275794 C-319.82443608 83.14796916 -321.09627896 80.90387351 -322 77 C-321.17172195 76.99191315 -320.34344391 76.98382629 -319.49006653 76.97549438 C-311.67721884 76.89749345 -303.86454217 76.81018614 -296.05191517 76.71247292 C-292.03554031 76.66256675 -288.01919102 76.61623633 -284.00268555 76.578125 C-280.12518294 76.54120026 -276.2478973 76.49482103 -272.37058067 76.44193649 C-270.89268494 76.42343068 -269.41474277 76.40830867 -267.93677711 76.39665604 C-265.86363217 76.37972791 -263.79097998 76.35067826 -261.71801758 76.31884766 C-260.53887283 76.30552399 -259.35972809 76.29220032 -258.14485168 76.2784729 C-255.00886808 76.00078526 -252.79918792 75.41548643 -250 74 C-247.89708363 71.09597263 -247.47061685 68.52922099 -248 65 C-250.25093942 61.98048101 -251.45411522 61.08813554 -255.2144165 60.48101807 C-256.48460632 60.47213562 -257.75479614 60.46325317 -259.06347656 60.45410156 C-260.11773834 60.43859505 -260.11773834 60.43859505 -261.19329834 60.42277527 C-263.50930782 60.39334973 -265.8244433 60.39184825 -268.140625 60.390625 C-269.74918281 60.37564307 -271.35772523 60.35891588 -272.96624756 60.34051514 C-277.19454658 60.29683036 -281.42263809 60.2768402 -285.65112305 60.26177979 C-289.96806107 60.24221264 -294.28477487 60.20024224 -298.6015625 60.16015625 C-307.06764968 60.08484199 -315.53364883 60.03455809 -324 60 C-324.12489723 55.62590696 -324.21493781 51.2527961 -324.2746582 46.87744141 C-324.29958838 45.39353321 -324.33354625 43.90974505 -324.37719727 42.42626953 C-324.66195748 32.48981324 -324.40941024 23.77266773 -317.22583008 16.10668945 C-308.24278693 7.76708166 -298.60618436 7.8509301 -287.01702881 7.86196899 C-285.2103858 7.85773707 -285.2103858 7.85773707 -283.36724496 7.85341966 C-280.03677449 7.84654232 -276.70635283 7.84404903 -273.37587881 7.84336853 C-269.77944918 7.84152303 -266.18303147 7.83391321 -262.58660889 7.82688904 C-256.35906881 7.81538239 -250.1315314 7.80712847 -243.90398407 7.80076981 C-234.06473511 7.79043262 -224.22551978 7.76986826 -214.3862915 7.74765015 C-211.019024 7.74017135 -207.65175636 7.73275756 -204.28448868 7.72536278 C-203.02240743 7.72258693 -203.02240743 7.72258693 -201.73482959 7.719755 C-192.16534538 7.6988436 -182.59585748 7.68000549 -173.02636719 7.66210938 C-172.15187189 7.66047119 -171.27737659 7.65883301 -170.37638143 7.65714519 C-156.18483315 7.63082394 -141.99328227 7.61219838 -127.80171987 7.59551747 C-113.23220318 7.57811545 -98.66273773 7.54929488 -84.09326196 7.5106281 C-75.10489551 7.48720105 -66.11661257 7.47323112 -57.12821534 7.47130047 C-50.9754344 7.469196 -44.82273672 7.45630822 -38.66999313 7.43482114 C-35.11720672 7.4227592 -31.56458565 7.41566262 -28.01177979 7.42153358 C-24.16608624 7.4277751 -20.32069263 7.41106711 -16.47503662 7.39199829 C-15.34461118 7.39752799 -14.21418575 7.40305768 -13.049505 7.40875494 C-12.02373044 7.3999151 -10.99795589 7.39107526 -9.94109726 7.38196754 C-9.05292871 7.38061102 -8.16476017 7.37925449 -7.24967742 7.37785685 C-4.47612667 6.91201 -3.68913757 6.21524629 -2 4 C-1.34 2.68 -0.68 1.36 0 0 Z " fill="#F5F7F0" transform="translate(341,282)"/>
<path d="M0 0 C0.77601563 0.65097656 1.55203125 1.30195312 2.3515625 1.97265625 C6.32858259 5.34314239 9.81588282 8.89273795 13.1796875 12.875 C14.40092463 14.30065021 15.657291 15.69688685 16.9453125 17.0625 C30.38312796 31.34327805 40.8470312 47.73227851 50 65 C50.37318359 65.69174316 50.74636719 66.38348633 51.13085938 67.09619141 C68.94369252 100.54120599 75.48969988 139.11016654 75.25 176.625 C75.24689819 177.50395935 75.24379639 178.3829187 75.24060059 179.28851318 C75.08609807 217.10342877 71.28869893 254.59131957 66.32775879 292.05230713 C66.06981183 294.00062563 65.81463525 295.94931314 65.56237793 297.89837646 C65.20747555 300.62135467 64.83843904 303.34203095 64.46484375 306.0625 C64.36177414 306.86495148 64.25870453 307.66740295 64.1525116 308.49417114 C63.34051154 314.22462062 62.22796224 319.77203776 58 324 C55.25 324.875 55.25 324.875 52 325 C46.49350649 321.98701299 46.49350649 321.98701299 45 319 C44.42613796 311.15780552 45.48492759 303.59339578 46.75 295.875 C49.20972052 279.95682661 51.33192085 264.01946911 53 248 C53.11598541 246.88612915 53.11598541 246.88612915 53.23431396 245.74975586 C55.60928565 222.53864082 56.30326675 199.38921231 56.375 176.0625 C56.38678284 174.16555389 56.38678284 174.16555389 56.39880371 172.23028564 C56.4686152 157.83201838 56.03897798 144.09570511 53 130 C52.80664062 129.01330322 52.61328125 128.02660645 52.4140625 127.01000977 C48.47813899 107.40252613 41.73508136 88.47342217 32 71 C31.52401367 70.14374023 31.04802734 69.28748047 30.55761719 68.40527344 C20.80853759 51.04181601 9.74174328 36.33461448 -4 22 C-4.89460938 21.05253906 -5.78921875 20.10507813 -6.7109375 19.12890625 C-13.6096532 11.99753591 -21.07125179 5.92338481 -29 0 C-29.80695313 -0.61359375 -30.61390625 -1.2271875 -31.4453125 -1.859375 C-76.55891534 -34.86932829 -134.04795833 -47.6295354 -189.06982422 -39.31640625 C-194.44727869 -38.43490094 -199.71270994 -37.3146152 -205 -36 C-206.41259055 -35.68153726 -207.82536155 -35.36387419 -209.23828125 -35.046875 C-237.33701236 -28.47576152 -263.0586363 -14.69941439 -285.9375 2.625 C-286.63536621 3.1511792 -287.33323242 3.6773584 -288.05224609 4.21948242 C-292.15990667 7.38365087 -295.86723002 10.74561349 -299.48364258 14.45996094 C-301.19255815 16.19556542 -302.99626126 17.76358428 -304.875 19.3125 C-321.91895983 34.18132591 -334.58075557 54.14738394 -345 74 C-345.38236816 74.72219727 -345.76473633 75.44439453 -346.15869141 76.18847656 C-360.6921625 104.04593947 -367.67077332 135.54835638 -368.23046875 166.83203125 C-368.2451268 167.5785495 -368.25978485 168.32506775 -368.27488708 169.09420776 C-368.34153002 172.77939012 -368.37469667 176.46073798 -368.3581543 180.14648438 C-368.37102015 181.50000546 -368.38442222 182.85352158 -368.3984375 184.20703125 C-368.39505371 185.3978833 -368.39166992 186.58873535 -368.38818359 187.81567383 C-369.17770145 191.92488426 -370.80429035 193.39093516 -374 196 C-376.5 197 -376.5 197 -379 197 C-381.83713564 195.61442213 -383.77001704 194.22998296 -386 192 C-386.21343025 189.17019939 -386.30343498 186.44102732 -386.30078125 183.609375 C-386.30638062 182.76145889 -386.31197998 181.91354279 -386.31774902 181.03993225 C-386.32971865 178.27644379 -386.32336312 175.51348847 -386.3125 172.75 C-386.31067719 171.81239838 -386.30885437 170.87479675 -386.30697632 169.90878296 C-386.2613453 156.0590992 -385.78157356 142.60664373 -383 129 C-382.82839355 128.11473633 -382.65678711 127.22947266 -382.47998047 126.31738281 C-375.61758173 91.4227905 -361.40446763 57.81103021 -339 30 C-338.28457031 29.09378906 -337.56914062 28.18757813 -336.83203125 27.25390625 C-331.19142798 20.21563138 -325.17762174 13.56490383 -319 7 C-318.38382812 6.34128906 -317.76765625 5.68257813 -317.1328125 5.00390625 C-312.16172029 -0.14557444 -306.60003985 -4.55783575 -301 -9 C-299.99839844 -9.80695312 -298.99679687 -10.61390625 -297.96484375 -11.4453125 C-219.35206065 -74.05213866 -105.22005203 -75.65972662 0 0 Z " fill="#242322" transform="translate(437,60)"/>
<path d="M0 0 C11.00514185 3.26617632 21.60171987 27.44277045 27.06640625 36.61328125 C27.46939941 37.2877832 27.87239258 37.96228516 28.28759766 38.65722656 C60.55021823 92.89337322 82.76573499 153.25280864 90.671875 216.05859375 C90.93061372 218.59624806 90.93061372 218.59624806 92.06640625 220.61328125 C92.80246094 220.26394531 93.53851563 219.91460937 94.296875 219.5546875 C95.27269531 219.09964844 96.24851562 218.64460937 97.25390625 218.17578125 C98.21683594 217.72332031 99.17976563 217.27085937 100.171875 216.8046875 C102.8432676 215.70512644 105.23983409 215.13193745 108.06640625 214.61328125 C107.87608322 213.34525917 107.87608322 213.34525917 107.68191528 212.05162048 C106.42619738 203.50474759 105.41192546 194.96407628 104.55859375 186.3671875 C104.36307419 184.42415993 104.36307419 184.42415993 104.16360474 182.44187927 C103.89113705 179.73040519 103.62081251 177.01872861 103.35205078 174.30688477 C103.00905156 170.84810439 102.66018031 167.3899446 102.30969048 163.93191624 C101.97268696 160.59816828 101.64089659 157.26390731 101.30859375 153.9296875 C101.18362518 152.6973085 101.05865662 151.4649295 100.92990112 150.19520569 C99.44312137 135.08101661 99.44312137 135.08101661 100.9140625 131.6171875 C103.36017332 128.7148888 104.82584781 127.6605338 108.56640625 126.92578125 C113.00138789 127.79693836 114.24772421 129.12185976 117.06640625 132.61328125 C117.74424138 135.25392846 118.11971771 137.39713393 118.32421875 140.0703125 C118.39786148 140.79812927 118.47150421 141.52594604 118.54737854 142.27581787 C118.78319811 144.65764117 118.98747328 147.04103475 119.19140625 149.42578125 C119.34935128 151.08409153 119.50928695 152.74221333 119.67114258 154.40014648 C120.08049489 158.64334265 120.46429669 162.8884491 120.84246826 167.13452148 C121.19253158 171.00935694 121.56891608 174.88155549 121.9453125 178.75390625 C123.06717893 190.36685204 124.11847989 201.98475882 125.06640625 213.61328125 C126.28328125 213.51015625 127.50015625 213.40703125 128.75390625 213.30078125 C135.4132094 213.29027762 141.05708013 215.98324539 147.06640625 218.61328125 C147.81148437 218.91234375 148.5565625 219.21140625 149.32421875 219.51953125 C160.93472069 224.59618797 168.398675 234.75651685 173.60546875 245.91015625 C179.21273576 260.25724168 179.11341715 276.09831792 173.5546875 290.44140625 C171.46961156 294.88519014 169.11517369 298.77293151 166.06640625 302.61328125 C165.61652344 303.22429687 165.16664063 303.8353125 164.703125 304.46484375 C156.74958966 314.63640726 143.71758351 321.58031751 131.06640625 323.61328125 C119.88616185 324.59999837 109.50114581 324.07532136 99.06640625 319.61328125 C98.12539063 319.21238281 97.184375 318.81148438 96.21484375 318.3984375 C81.86480048 311.42552915 72.98850083 298.8970704 67.828125 284.15625 C64.38306339 272.65504433 64.86315422 258.84921179 69.06640625 247.61328125 C69.96144464 245.97626901 70.87811326 244.35089064 71.81640625 242.73828125 C77.00439289 232.94356895 72.54577979 218.62846381 70.94140625 208.11328125 C70.83480682 207.40894958 70.7282074 206.70461792 70.61837769 205.97894287 C67.36935686 184.75192755 62.57954344 163.87574824 55.69677734 143.51806641 C54.7902731 140.77889285 53.99745872 138.00842663 53.19140625 135.23828125 C40.66754105 94.71390443 20.42149308 56.20644229 -3.84741211 21.54980469 C-4.3553833 20.82438477 -4.86335449 20.09896484 -5.38671875 19.3515625 C-5.83176758 18.72290283 -6.27681641 18.09424316 -6.73535156 17.4465332 C-9.61668962 13.03822688 -10.50883496 9.9821992 -9.93359375 4.61328125 C-7.51443116 0.68214205 -4.61997572 -0.29778849 0 0 Z " fill="#252323" transform="translate(334.93359375,188.38671875)"/>
<path d="M0 0 C1.04492363 -0.00384115 2.08984726 -0.00768229 3.16643524 -0.01163983 C4.30796303 -0.01077335 5.44949081 -0.00990687 6.62561035 -0.00901413 C7.84325325 -0.01198525 9.06089615 -0.01495637 10.31543732 -0.01801753 C13.69217212 -0.02519047 17.06885603 -0.02787627 20.44559479 -0.028615 C24.08845081 -0.03046804 27.73129585 -0.03801645 31.37414551 -0.04475021 C39.3367396 -0.05832171 47.29932864 -0.0643559 55.26193237 -0.06876087 C60.23285021 -0.07152427 65.2037661 -0.07576171 70.17468262 -0.08026505 C83.93627805 -0.09245423 97.69787194 -0.1027555 111.45947266 -0.10614014 C112.33988739 -0.1063597 113.22030213 -0.10657927 114.12739611 -0.10680549 C115.00991281 -0.10702377 115.89242951 -0.10724204 116.80168915 -0.10746694 C118.59000142 -0.1079104 120.3783137 -0.10835697 122.16662598 -0.10880661 C123.49722219 -0.10913875 123.49722219 -0.10913875 124.85469913 -0.10947761 C139.23904817 -0.11342848 153.62334664 -0.13089287 168.00767612 -0.15416613 C182.77373262 -0.17786444 197.53976371 -0.19034123 212.30583954 -0.19150805 C220.59743506 -0.19242547 228.88896462 -0.19819472 237.18054199 -0.21632767 C244.23818821 -0.23170787 251.29574807 -0.23686132 258.35340786 -0.22858956 C261.95505105 -0.22467617 265.55652019 -0.22564616 269.15814209 -0.23964691 C273.06013428 -0.25467695 276.96187995 -0.24654011 280.8638916 -0.23606491 C282.57618328 -0.24814952 282.57618328 -0.24814952 284.32306671 -0.26047826 C285.36799034 -0.25388841 286.41291397 -0.24729857 287.48950195 -0.24050903 C288.39014626 -0.24110612 289.29079056 -0.24170321 290.21872711 -0.24231839 C293.34232602 0.21984394 295.19892283 1.28652554 297.74475098 3.13142776 C299.74475098 6.13142776 299.74475098 6.13142776 299.61975098 9.56892776 C298.64963625 13.51868056 297.86250123 14.63764895 294.74475098 17.13142776 C292.37432706 17.63233244 292.37432706 17.63233244 289.68898582 17.63364983 C288.66307032 17.64386402 287.63715482 17.65407821 286.58015096 17.66460192 C284.89195161 17.65091494 284.89195161 17.65091494 283.16964722 17.63695145 C281.97272078 17.64304157 280.77579435 17.64913169 279.54259741 17.65540636 C276.21856322 17.66833766 272.89541907 17.66335341 269.57143998 17.65091515 C265.98706686 17.64186713 262.40277672 17.65587587 258.81842041 17.66717911 C252.60553659 17.68369307 246.39278148 17.68581144 240.17988205 17.67841339 C231.1861787 17.66790025 222.19263289 17.68128435 213.19895048 17.70087795 C198.59328582 17.73223257 183.9876544 17.74722447 169.38195801 17.75056839 C168.50760238 17.75077238 167.63324674 17.75097637 166.73239549 17.75118653 C165.85697643 17.7513899 164.98155737 17.75159327 164.07961047 17.7518028 C151.6829921 17.75471958 139.28638402 17.76151595 126.88977051 17.77302933 C126.01829873 17.77383462 125.14682696 17.77463992 124.24894695 17.77546962 C109.70550074 17.78923671 95.16207281 17.81103711 80.6186434 17.83689916 C71.65122734 17.85232642 62.68387115 17.85955789 53.71644206 17.85610424 C47.56688002 17.85406006 41.41734769 17.85874278 35.26779334 17.86864759 C31.72228434 17.8740669 28.17685235 17.87617713 24.63134384 17.86947441 C20.78144145 17.86223283 16.93165596 17.87039208 13.08175659 17.87987137 C11.96967469 17.87520815 10.85759278 17.87054494 9.71181142 17.86574042 C0.43599769 17.9102572 -8.09827604 18.25020205 -15.49743652 24.34627151 C-21.32989583 30.26945797 -23.37203244 36.24864139 -23.57165527 44.42439651 C-23.59243637 45.13042511 -23.61321747 45.8364537 -23.6346283 46.56387711 C-23.69992394 48.81546327 -23.75891549 51.06716438 -23.81774902 53.31892776 C-23.86095328 54.84693436 -23.90456818 56.37492941 -23.9486084 57.90291214 C-24.05558476 61.64563338 -24.15690824 65.38847006 -24.25524902 69.13142776 C-23.3643306 69.12032471 -22.47341217 69.10922165 -21.55549622 69.09778214 C-13.1542197 68.99754421 -4.75314437 68.92144462 3.64859295 68.87236691 C7.96793338 68.84628695 12.2867792 68.81091906 16.60583496 68.7542305 C20.77502608 68.69985219 24.94374186 68.66999518 29.11326027 68.65704155 C30.70291438 68.64781198 32.29254283 68.6297882 33.88199425 68.60277748 C36.11114823 68.56640682 38.33834546 68.56148532 40.56774902 68.56380081 C41.83571823 68.55269775 43.10368744 68.5415947 44.41007996 68.53015518 C48.65695633 69.29590698 50.15192838 70.7415421 52.74475098 74.13142776 C52.81630645 78.21008996 52.40606977 80.29375729 49.86975098 83.50642776 C46.14145523 86.35747745 42.89692701 86.27606542 38.34558105 86.33675003 C37.70140732 86.34664963 37.05723358 86.35654922 36.39353943 86.36674881 C34.26715758 86.39830243 32.1407534 86.42309682 30.01428223 86.44783401 C28.53882776 86.46840885 27.06337911 86.48940547 25.5879364 86.51080704 C21.70656047 86.56597302 17.82513182 86.61540638 13.94366455 86.66365433 C9.98213007 86.71390935 6.02067204 86.76957452 2.0592041 86.82478714 C-5.71221551 86.93230175 -13.48369874 87.03376154 -21.25524902 87.13142776 C-20.64036621 88.24131058 -20.0254834 89.35119339 -19.39196777 90.49470901 C-19.04609619 91.1190181 -18.70022461 91.74332718 -18.34387207 92.38655472 C-15.06967409 97.63452354 -8.97193501 100.33665259 -3.25524902 102.13142776 C1.27745929 102.68997897 5.76577233 102.66162245 10.32820129 102.62349319 C11.69430699 102.62650807 13.06040973 102.63128905 14.42650384 102.63767195 C18.16112084 102.65012842 21.89530511 102.63792221 25.62989199 102.62159705 C29.66462757 102.60838585 33.69931334 102.61839824 37.73405457 102.62570572 C44.71898581 102.63537168 51.70379215 102.63093872 58.68871498 102.61728287 C68.79200231 102.59790083 78.89514952 102.6043673 88.99844053 102.61785668 C105.39736407 102.63942324 121.79625451 102.64615448 138.19519043 102.64070511 C139.17595455 102.64038448 140.15671867 102.64006384 141.16720291 102.63973349 C148.13055244 102.63735978 155.09390171 102.63445469 162.05725098 102.63142776 C170.02022287 102.62796746 177.98319476 102.62474967 185.94616699 102.62215042 C186.92724941 102.62182491 187.90833183 102.6214994 188.91914401 102.62116402 C205.26396774 102.61622595 221.60874546 102.62688011 237.95355481 102.64872217 C248.03535702 102.66143412 258.11696999 102.65994633 268.19876202 102.64027131 C275.10000526 102.62768858 282.00115229 102.62910301 288.90239535 102.64164484 C292.88675486 102.64837376 296.87083388 102.64840825 300.85516739 102.63106346 C304.49990116 102.61529798 308.14414364 102.61775943 311.7888669 102.6349135 C313.73701337 102.63923112 315.68517232 102.62371498 317.63325673 102.6075778 C318.78519118 102.61655859 319.93712562 102.62553939 321.12396717 102.63479233 C322.61806338 102.63381821 322.61806338 102.63381821 324.14234334 102.63282442 C327.49911878 103.27595943 328.66738844 104.46341201 330.74475098 107.13142776 C331.61121232 110.59727315 332.10656836 113.01582415 330.99475098 116.44392776 C329.74475098 118.13142776 329.74475098 118.13142776 326.74475098 120.13142776 C324.25832045 120.38442743 324.25832045 120.38442743 321.22695351 120.38869667 C319.49528842 120.39837001 319.49528842 120.39837001 317.7286402 120.40823877 C316.45445145 120.40514156 315.18026269 120.40204436 313.86746216 120.3988533 C312.50470171 120.40258804 311.1419434 120.40718885 309.77918851 120.41258395 C306.02571759 120.42485251 302.27233555 120.42454893 298.51884913 120.4221952 C294.47361159 120.42178797 290.4284029 120.43281755 286.38317871 120.44231033 C278.4523155 120.45894527 270.52148202 120.46442111 262.59060283 120.46553509 C256.14102884 120.46648492 249.69146466 120.47059198 243.24189377 120.47693634 C224.95340742 120.49455993 206.66494456 120.50377412 188.37644966 120.50227539 C187.38987874 120.50219548 186.40330783 120.50211557 185.38684082 120.50203323 C184.39906326 120.50195147 183.41128569 120.50186971 182.39357547 120.50178547 C166.40432153 120.50097351 150.415162 120.52008556 134.42593534 120.54830997 C118.00556068 120.57706626 101.585232 120.59084857 85.16483152 120.58912241 C75.94737794 120.58845919 66.73002319 120.59392119 57.51259232 120.61547852 C49.65947059 120.63372702 41.8064924 120.63800805 33.95335861 120.62445967 C29.94969995 120.61794686 25.94631636 120.61775099 21.94268417 120.63516617 C18.26948336 120.65097873 14.59677381 120.64795087 10.92358439 120.6305979 C8.98180665 120.62611185 7.04001317 120.64112146 5.09829581 120.65707719 C-8.23877204 120.55316636 -19.28325227 117.13015764 -29.25524902 108.13142776 C-36.40368645 100.62357169 -41.31514559 91.56719869 -41.43225098 81.07844925 C-41.44508621 80.07317688 -41.45792145 79.06790451 -41.47114563 78.03216934 C-41.47853256 76.94988556 -41.48591949 75.86760178 -41.49353027 74.75252151 C-41.50160202 73.63007538 -41.50967377 72.50762924 -41.51799011 71.35116959 C-41.53181923 68.97316908 -41.54254662 66.59514882 -41.55041504 64.21712112 C-41.56191176 61.79746518 -41.58232661 59.37783412 -41.61193848 56.95833206 C-41.65484705 53.45205414 -41.67081916 49.94653023 -41.68103027 46.44002151 C-41.69853836 45.37190735 -41.71604645 44.30379318 -41.73408508 43.20331192 C-41.6995062 31.06064913 -37.44056692 20.9315884 -29.29040527 11.97127151 C-21.2990548 4.24003734 -11.12386586 0.0153955 0 0 Z " fill="#242323" transform="translate(41.2552490234375,272.8685722351074)"/>
<path d="M0 0 C0.99 0.495 0.99 0.495 2 1 C1.11699219 1.84820312 0.23398438 2.69640625 -0.67578125 3.5703125 C-8.88572049 11.55488086 -16.18660317 19.80489465 -23 29 C-23.85023745 30.11980911 -24.7004977 31.2396009 -25.55078125 32.359375 C-52.02689022 67.76508355 -66.97969562 112.59537498 -67.375 156.6875 C-67.38901855 157.7501709 -67.40303711 158.8128418 -67.41748047 159.90771484 C-67.34479334 171.75571706 -64.26752121 184.49203188 -56.5 193.796875 C-55.36249618 194.89560028 -54.18586144 195.95365167 -53 197 C-53 197.66 -53 198.32 -53 199 C-52.17048828 199.38865234 -52.17048828 199.38865234 -51.32421875 199.78515625 C-48.68426385 201.16503184 -46.28588193 202.77787143 -43.8125 204.4375 C-35.35714864 209.86019867 -27.06580583 212.0988394 -17.01304626 212.15390015 C-15.83718964 212.16250061 -14.66133301 212.17110107 -13.44984436 212.17996216 C-11.53515602 212.18635208 -11.53515602 212.18635208 -9.58178711 212.19287109 C-8.21284787 212.20078201 -6.84391067 212.20905156 -5.47497559 212.21765137 C-0.99245158 212.24376091 3.49008122 212.25916967 7.97265625 212.2734375 C9.52201276 212.27880206 11.07136922 212.28417958 12.62072563 212.28956985 C19.0710027 212.3111839 25.52127739 212.32991629 31.97158146 212.34119225 C41.18245231 212.35740584 50.39289974 212.39053723 59.60361105 212.44759309 C66.09814884 212.48643705 72.59257408 212.50584203 79.0872249 212.51111281 C82.95710172 212.51474706 86.82652579 212.52656037 90.69627571 212.55921555 C94.34330977 212.58955185 97.98962318 212.59551873 101.6367569 212.58383179 C103.591622 212.58350999 105.54644436 212.60780498 107.50114441 212.63320923 C120.07764853 212.54570687 131.56098676 208.4675882 141 200 C148.96834559 191.74656154 151.87876522 181.74697884 155 171 C167.36391557 185.99159337 176.53449084 204.13732878 185.5625 221.25 C186.33170776 222.69620728 186.33170776 222.69620728 187.11645508 224.17163086 C187.59493896 225.08952393 188.07342285 226.00741699 188.56640625 226.953125 C188.98865479 227.75911133 189.41090332 228.56509766 189.84594727 229.39550781 C191 232 191 232 193 239 C182.77 239 172.54 239 162 239 C161.01 237.02 160.02 235.04 159 233 C156.12788146 230.9335097 153.69712403 230.74780635 150.21303177 230.73828697 C149.24713379 230.73082148 148.28123581 230.72335599 147.2860682 230.71566427 C146.22770879 230.717599 145.16934937 230.71953374 144.07891846 230.7215271 C142.95252386 230.7157347 141.82612926 230.7099423 140.66560149 230.70397437 C136.8776249 230.68692023 133.08976974 230.68409317 129.30175781 230.68115234 C126.5918344 230.67296249 123.88192531 230.66177748 121.17201233 230.65071106 C115.33074714 230.62842863 109.48949949 230.61342127 103.64820099 230.60334396 C95.20265294 230.58876335 86.75716602 230.56322828 78.31165382 230.53501268 C64.60964086 230.48953344 50.90761911 230.45292331 37.20556641 230.421875 C23.8946783 230.39169409 10.58381171 230.35734594 -2.72705078 230.31738281 C-3.54742367 230.31492126 -4.36779656 230.31245972 -5.21302924 230.30992357 C-9.3285665 230.29754906 -13.44410351 230.28509251 -17.55964041 230.27259517 C-51.70639773 230.16901042 -85.85317942 230.07996027 -120 230 C-120 224.39 -120 218.78 -120 213 C-117.69 212.01 -115.38 211.02 -113 210 C-111.57543355 207.15086709 -111.83541463 204.68426393 -111.7890625 201.5 C-111.76351888 200.1372743 -111.73719953 198.77456297 -111.71020508 197.41186523 C-111.69696198 196.69279999 -111.68371887 195.97373474 -111.67007446 195.23287964 C-110.41771913 133.19423192 -90.04059694 76.81875096 -45 33 C-42.37792638 30.61275769 -39.70416848 28.29356567 -37 26 C-36.06414062 25.2059375 -35.12828125 24.411875 -34.1640625 23.59375 C-25.66208976 16.58289248 -16.77960921 10.42471325 -7.5 4.5 C-6.79270752 4.04181885 -6.08541504 3.5836377 -5.35668945 3.11157227 C-3.60942746 2.0110833 -1.80826674 0.99708166 0 0 Z " fill="#B11800" transform="translate(179,43)"/>
<path d="M0 0 C10.56 0 21.12 0 32 0 C42.23628732 24.25859872 51.29275582 48.12358596 57.45117188 73.73535156 C58.07595441 76.3134133 58.71789612 78.88698118 59.359375 81.4609375 C59.82341071 83.34883697 60.28695692 85.23685682 60.75 87.125 C61.08451172 88.45869629 61.08451172 88.45869629 61.42578125 89.81933594 C61.63074219 90.6652832 61.83570313 91.51123047 62.046875 92.3828125 C62.23088867 93.12934082 62.41490234 93.87586914 62.60449219 94.64501953 C63 97 63 97 63 103 C52.77 103 42.54 103 32 103 C30.515 100.03 30.515 100.03 29 97 C27.19025206 94.77089075 27.19025206 94.77089075 24.64944136 94.75209498 C23.15664532 94.75355615 23.15664532 94.75355615 21.63369179 94.75504684 C19.91453841 94.7493989 19.91453841 94.7493989 18.16065466 94.74363685 C16.89065285 94.7496643 15.62065103 94.75569175 14.31216431 94.76190186 C12.95780566 94.76119606 11.60344722 94.75959713 10.24909055 94.75717759 C6.51421503 94.75300238 2.77945125 94.76121751 -0.95540929 94.77128005 C-4.97881837 94.77990098 -9.00221924 94.77694832 -13.02563477 94.77513123 C-20.00354554 94.77331706 -26.98142629 94.77812735 -33.95933151 94.78673553 C-44.99362921 94.79976523 -56.02786803 94.79222181 -67.06216431 94.78131104 C-70.83657637 94.77783251 -74.61098855 94.7744875 -78.38540077 94.77118301 C-79.80049021 94.76993601 -79.80049021 94.76993601 -81.24416732 94.76866381 C-91.99041364 94.75947426 -102.73666047 94.75452908 -113.48291016 94.75146484 C-114.4655343 94.75117909 -115.44815845 94.75089335 -116.46055909 94.75059894 C-132.36646209 94.74649898 -148.2723275 94.75770712 -164.1782221 94.77284035 C-180.50932589 94.78782107 -196.84031624 94.77980567 -213.17140353 94.75222325 C-223.242797 94.73606838 -233.31383293 94.73872532 -243.38520487 94.76569638 C-250.29456545 94.78261799 -257.20369521 94.77770169 -264.11304097 94.75581208 C-268.09643619 94.74387816 -272.07921097 94.74158296 -276.06256485 94.76569176 C-279.71623565 94.78760915 -283.36879129 94.78146549 -287.02241381 94.75388661 C-288.95604175 94.74636822 -290.88971684 94.76816882 -292.82322061 94.79133677 C-302.06196583 94.67944617 -310.11720527 92.44334729 -317.09586847 86.09275794 C-319.82443608 83.14796916 -321.09627896 80.90387351 -322 77 C-321.17172195 76.99191315 -320.34344391 76.98382629 -319.49006653 76.97549438 C-311.67721884 76.89749345 -303.86454217 76.81018614 -296.05191517 76.71247292 C-292.03554031 76.66256675 -288.01919102 76.61623633 -284.00268555 76.578125 C-280.12518294 76.54120026 -276.2478973 76.49482103 -272.37058067 76.44193649 C-270.89268494 76.42343068 -269.41474277 76.40830867 -267.93677711 76.39665604 C-265.86363217 76.37972791 -263.79097998 76.35067826 -261.71801758 76.31884766 C-259.94930046 76.29886215 -259.94930046 76.29886215 -258.14485168 76.2784729 C-253.87004054 75.89994343 -251.04993801 75.04993801 -248 72 C-248 72.66 -248 73.32 -248 74 C-234.96769827 75.74411331 -222.19210707 76.28873761 -209.05322266 76.25878906 C-207.02080155 76.26150677 -204.98838143 76.26507204 -202.95596313 76.26940918 C-197.49356254 76.27843927 -192.03123843 76.27502904 -186.56883669 76.26865101 C-180.82497246 76.26354612 -175.08111427 76.26829444 -169.33724976 76.27142334 C-159.70284868 76.27504824 -150.06847841 76.27030096 -140.43408203 76.26074219 C-129.31970372 76.24984193 -118.2053987 76.25340059 -107.09102213 76.264395 C-97.51262526 76.27348791 -87.93425037 76.27474391 -78.35585058 76.26951766 C-72.65033414 76.26641136 -66.94485211 76.26595199 -61.23933792 76.27259064 C-55.87936106 76.27839337 -50.51947833 76.27431388 -45.15951157 76.26280212 C-43.20044358 76.26017195 -41.24136759 76.26089232 -39.28230286 76.26532745 C-16.36340955 76.38697398 -16.36340955 76.38697398 3.91015625 66.5078125 C9.83020224 60.4212179 13.19967441 51.00752229 13.5625 42.625 C12.90019658 29.98604314 8.09846784 16.78857278 1.6875 5.9375 C0 3 0 3 0 0 Z " fill="#B5B6B1" transform="translate(341,282)"/>
<path d="M0 0 C8.4066049 5.97440271 14.3260689 13.93523796 17.57421875 23.6796875 C18.33013118 38.24553865 17.61707827 49.27764399 7.57421875 60.6796875 C-1.49530614 68.65356509 -10.8877828 72.45546294 -22.96484375 72.0625 C-32.57607872 70.99940629 -41.88945282 66.67494409 -48.43359375 59.46875 C-50.18914601 57.25778251 -51.82511931 55.00435456 -53.42578125 52.6796875 C-54.02390625 51.8959375 -54.62203125 51.1121875 -55.23828125 50.3046875 C-59.50745798 40.86756 -59.75394751 28.99373333 -56.19140625 19.33203125 C-50.73869074 7.99094512 -43.7546196 1.03119399 -31.98828125 -3.6953125 C-21.21994545 -7.24498552 -9.96036634 -5.42126219 0 0 Z " fill="#F5F7F0" transform="translate(476.42578125,423.3203125)"/>
<path d="M0 0 C42.50875804 -1.54849765 90.07959035 24.86087205 120.5625 52.875 C122.72540084 54.89918672 124.86650969 56.9448748 127 59 C127.52513184 59.50321777 128.05026367 60.00643555 128.59130859 60.52490234 C135.5467134 67.22182199 142.39501653 74.10206875 148 82 C148 82.66 148 83.32 148 84 C136.89386367 83.67667725 126.68250365 82.00895319 116 79 C115.30068359 78.8030957 114.60136719 78.60619141 113.88085938 78.40332031 C95.07635383 72.94254746 76.53159964 64.48544623 60 54 C58.96117676 53.34112793 58.96117676 53.34112793 57.90136719 52.66894531 C36.95968465 39.26154821 12.05069888 22.40372424 0 0 Z " fill="#FE7460" transform="translate(303,19)"/>
<path d="M0 0 C3.64224671 2.55732216 4.79931634 4.0801999 5.75 8.4375 C4.48228347 14.45915352 -0.07128499 16.70207604 -4.90234375 19.953125 C-34.43089553 39.85357929 -54.36669645 69.2512539 -61.35375977 104.30322266 C-62.71727001 111.64752736 -63.41545483 118.90588357 -63.44628906 126.38061523 C-63.56513894 131.17713982 -64.52956691 133.67287025 -68 137 C-71.375 138.125 -71.375 138.125 -75 138 C-77.55762007 136.372139 -79.17194172 135.31225055 -81 133 C-81.56083088 130.12930636 -81.72173889 128.21465047 -81.5625 125.375 C-81.54026367 124.63644775 -81.51802734 123.89789551 -81.49511719 123.13696289 C-81.11397376 114.31423273 -79.70378085 105.65183661 -78 97 C-77.87141602 96.32114746 -77.74283203 95.64229492 -77.61035156 94.94287109 C-73.99927398 76.47859525 -65.71190542 59.35696563 -55 44 C-54.42693115 43.16662109 -54.42693115 43.16662109 -53.84228516 42.31640625 C-44.22781374 28.52119049 -19.18191942 -3.19698657 0 0 Z " fill="#262322" transform="translate(209,89)"/>
<path d="M0 0 C1.27018478 -0.01409912 2.54036957 -0.02819824 3.8490448 -0.04272461 C5.24917961 -0.03300392 6.64931088 -0.02276313 8.04943848 -0.01205444 C9.52974014 -0.01883254 11.01003338 -0.02773676 12.49031067 -0.03860474 C16.50489573 -0.06138241 20.51883773 -0.05256849 24.53343391 -0.03670931 C28.73649949 -0.0240422 32.93951036 -0.03579266 37.14257812 -0.04364014 C44.20066199 -0.05273437 51.25848419 -0.04075485 58.31652832 -0.01693726 C66.47432917 0.01027376 74.6315052 0.00145943 82.7892909 -0.02606928 C89.79583566 -0.04876592 96.80219243 -0.05195778 103.80876207 -0.03887594 C107.99241915 -0.03108441 112.17578262 -0.03003142 116.35942078 -0.04655838 C120.29295761 -0.06101218 124.22568966 -0.0509659 128.15913963 -0.0220871 C129.60188143 -0.01548098 131.04469106 -0.01736601 132.48740578 -0.02840042 C134.45813183 -0.04208254 136.42900606 -0.02187435 138.3996582 0 C139.50208107 0.00188513 140.60450394 0.00377026 141.74033356 0.00571251 C145.69329768 0.84613532 147.20598966 2.52059443 149.6998291 5.63491821 C150.3248291 9.13491821 150.3248291 9.13491821 149.6998291 12.63491821 C147.20598966 15.74924199 145.69329768 17.4237011 141.74033356 18.26412392 C140.08669926 18.26695161 140.08669926 18.26695161 138.3996582 18.26983643 C136.49438103 18.29098511 136.49438103 18.29098511 134.5506134 18.31256104 C133.1504786 18.30284035 131.75034732 18.29259956 130.35021973 18.28189087 C128.86991806 18.28866897 127.38962483 18.29757319 125.90934753 18.30844116 C121.89476247 18.33121884 117.88082047 18.32240491 113.86622429 18.30654573 C109.66315871 18.29387863 105.46014784 18.30562909 101.25708008 18.31347656 C94.19899621 18.32257079 87.14117401 18.31059128 80.08312988 18.28677368 C71.92532904 18.25956266 63.768153 18.268377 55.6103673 18.29590571 C48.60382254 18.31860235 41.59746578 18.3217942 34.59089613 18.30871236 C30.40723906 18.30092083 26.22387559 18.29986785 22.04023743 18.31639481 C18.10670059 18.3308486 14.17396854 18.32080233 10.24051857 18.29192352 C8.79777678 18.28531741 7.35496715 18.28720244 5.91225243 18.29823685 C3.94152637 18.31191897 1.97065215 18.29171077 0 18.26983643 C-1.10242287 18.2679513 -2.20484573 18.26606617 -3.34067535 18.26412392 C-7.29363948 17.4237011 -8.80633146 15.74924199 -11.3001709 12.63491821 C-11.9251709 9.13491821 -11.9251709 9.13491821 -11.3001709 5.63491821 C-7.77993882 1.23882827 -5.60084791 0.00957737 0 0 Z " fill="#232323" transform="translate(182.3001708984375,332.3650817871094)"/>
<path d="M0 0 C1.19429471 -0.00085442 2.38858942 -0.00170885 3.61907488 -0.00258917 C6.92113968 -0.0039484 10.22314483 -0.00083487 13.52520239 0.0041889 C17.09089315 0.0085163 20.65658214 0.00704535 24.22227478 0.00628662 C30.3958066 0.00576284 36.56932783 0.00889444 42.74285698 0.01452446 C51.66869075 0.02265916 60.59451941 0.0252567 69.52035648 0.02651245 C84.00271472 0.02869987 98.48506731 0.03535156 112.96742249 0.04481506 C127.03382845 0.05399719 141.10023288 0.06107411 155.16664124 0.06532288 C156.03401788 0.0655856 156.90139453 0.06584832 157.79505532 0.06611901 C162.14652561 0.06742407 166.4979959 0.06868777 170.8494662 0.06993091 C206.93655913 0.08029387 243.02364564 0.09790377 279.11073303 0.12025452 C279.11073303 0.45025452 279.11073303 0.78025452 279.11073303 1.12025452 C183.41073303 1.12025452 87.71073303 1.12025452 -10.88926697 1.12025452 C-8.77624494 15.91140869 -5.64454411 27.47783192 2.11073303 40.12025452 C2.79715881 41.53951233 2.79715881 41.53951233 3.49745178 42.98744202 C5.46371369 46.34865487 6.7857027 48.02925606 10.11073303 50.12025452 C17.31376402 51.62135273 24.7909365 51.37897798 32.11073303 51.12025452 C32.11073303 51.45025452 32.11073303 51.78025452 32.11073303 52.12025452 C9.34073303 52.12025452 -13.42926697 52.12025452 -36.88926697 52.12025452 C-36.88926697 15.12025452 -36.88926697 15.12025452 -28.45176697 6.68275452 C-19.48672402 -0.17172756 -10.83174785 -0.02837651 0 0 Z " fill="#B2B3AE" transform="translate(53.88926696777344,289.87974548339844)"/>
<path d="M0 0 C0.33 0.66 0.66 1.32 1 2 C0.69964844 2.69222656 0.39929688 3.38445312 0.08984375 4.09765625 C-3.57053621 13.84554982 -1.4535168 26.49957699 2.39453125 35.8125 C8.27250318 47.48263405 16.49053259 55.17770484 28.55078125 60.22265625 C33.25623534 61.71609383 38.11471268 62.37177354 43 63 C37.77208345 68.74334494 31.14450557 71.46061496 23.48828125 72.45703125 C11.99547252 72.79840181 1.79053079 69.53000185 -7 62 C-9.58453303 59.1539967 -11.82167277 56.16361965 -14 53 C-14.598125 52.21625 -15.19625 51.4325 -15.8125 50.625 C-20.08167673 41.1878725 -20.32816626 29.31404583 -16.765625 19.65234375 C-12.60157712 10.99155344 -7.98309123 5.32206082 0 0 Z " fill="#B6B7B2" transform="translate(437,423)"/>
<path d="M0 0 C4.3981188 1.92170056 7.32097739 4.98652709 10.75585938 8.27148438 C13.01596599 10.29562502 15.28422523 11.79995073 17.93847656 13.26416016 C23.35071903 16.39920185 28.60119745 19.58010064 31.05187988 25.57171631 C32.86616021 32.76577938 33.15008241 40.11793792 33.5 47.5 C33.66116001 49.7244621 33.8290775 51.94844542 34.00390625 54.171875 C34.52637431 61.1106175 35 68.03978755 35 75 C29.39 77.31 23.78 79.62 18 82 C17.5875 79.6075 17.175 77.215 16.75 74.75 C14.19818616 60.25833911 11.26457623 45.87460364 7.95544434 31.53598022 C7.51386672 29.62258572 7.07572506 27.70839928 6.63769531 25.79418945 C4.95681888 18.60063249 3.02211842 11.55782737 0.75195312 4.52709961 C0 2 0 2 0 0 Z " fill="#B01800" transform="translate(408,328)"/>
<path d="M0 0 C1.06483109 -0.00960754 2.12966217 -0.01921509 3.22676086 -0.02911377 C4.3819371 -0.03336365 5.53711334 -0.03761353 6.72729492 -0.04199219 C7.91119308 -0.04769226 9.09509125 -0.05339233 10.31486511 -0.05926514 C12.82415877 -0.0687254 15.3334649 -0.07525318 17.84277344 -0.07910156 C21.68145459 -0.08880071 25.51959905 -0.11981269 29.3581543 -0.15136719 C31.79369799 -0.15789768 34.22924551 -0.16314797 36.66479492 -0.16699219 C38.38845024 -0.18551239 38.38845024 -0.18551239 40.14692688 -0.20440674 C41.22121445 -0.20140564 42.29550201 -0.19840454 43.40234375 -0.1953125 C44.81559685 -0.20078094 44.81559685 -0.20078094 46.25740051 -0.20635986 C50.36932778 0.36649137 53.00227525 2.26814439 55.89526367 5.16113281 C56.58538618 12.29239869 56.58538618 12.29239869 54.22937012 15.25817871 C51.30618611 17.64139693 49.82542949 17.66713371 46.08862305 17.67871094 C44.33660583 17.6976239 44.33660583 17.6976239 42.54919434 17.71691895 C41.29183472 17.70882202 40.0344751 17.7007251 38.73901367 17.69238281 C37.44459351 17.69620972 36.15017334 17.70003662 34.81652832 17.70397949 C32.07939521 17.70986969 29.34278509 17.7013282 26.60571289 17.68261719 C23.10154341 17.6598265 19.59859934 17.67295236 16.09447479 17.69690704 C12.74672347 17.71485735 9.3992998 17.70228042 6.05151367 17.69238281 C4.16547424 17.7045282 4.16547424 17.7045282 2.24133301 17.71691895 C1.07332153 17.7043103 -0.09468994 17.69170166 -1.2980957 17.67871094 C-2.3252771 17.67552856 -3.3524585 17.67234619 -4.4107666 17.66906738 C-7.79720306 17.03057166 -8.98282378 15.81961025 -11.10473633 13.16113281 C-11.83244865 10.42150994 -11.68445209 7.92899142 -11.10473633 5.16113281 C-7.79195673 0.85451933 -5.26237987 0.03823392 0 0 Z " fill="#282828" transform="translate(80.104736328125,306.8388671875)"/>
<path d="M0 0 C0.63164062 0.4125 1.26328125 0.825 1.9140625 1.25 C7.38700734 4.78296727 12.92038154 8.18327735 18.5625 11.4375 C19.16980957 11.79134766 19.77711914 12.14519531 20.40283203 12.50976562 C23.50263377 14.40176374 23.50263377 14.40176374 27 15 C28.35432675 16.31200404 29.68733482 17.64631404 31 19 C31.66 19.33 32.32 19.66 33 20 C33.16032995 25.87876496 32.6092534 31.23388095 31.5 37 C31.28537109 38.16208984 31.28537109 38.16208984 31.06640625 39.34765625 C30.71727671 41.23295579 30.35954684 43.11665939 30 45 C25.28688959 43.461166 20.68245867 41.72773026 16.07421875 39.90234375 C12.08309069 38.73086906 8.13370602 38.35203542 4 38 C2.13911332 25.33966845 0.5314934 12.79249621 0 0 Z " fill="#B11800" transform="translate(456,364)"/>
</svg>
